<?xml version="1.0" encoding="UTF-8" standalone="no"?>
<svg
   xmlns:dc="http://purl.org/dc/elements/1.1/"
   xmlns:cc="http://creativecommons.org/ns#"
   xmlns:rdf="http://www.w3.org/1999/02/22-rdf-syntax-ns#"
   xmlns:svg="http://www.w3.org/2000/svg"
   xmlns="http://www.w3.org/2000/svg"
   xmlns:sodipodi="http://sodipodi.sourceforge.net/DTD/sodipodi-0.dtd"
   xmlns:inkscape="http://www.inkscape.org/namespaces/inkscape"
   xml:space="preserve"
   width="273"
   height="273"
   viewBox="0 0 273 273"
   version="1.1"
   id="svg146"
   sodipodi:docname="cedar.svg"
   style="fill-rule:evenodd;image-rendering:optimizeQuality;shape-rendering:geometricPrecision;text-rendering:geometricPrecision"
   inkscape:version="0.92.2 5c3e80d, 2017-08-06"><metadata
     id="metadata152"><rdf:RDF><cc:Work
         rdf:about=""><dc:format>image/svg+xml</dc:format><dc:type
           rdf:resource="http://purl.org/dc/dcmitype/StillImage" /><dc:title></dc:title></cc:Work></rdf:RDF></metadata><defs
     id="defs150" /><sodipodi:namedview
     pagecolor="#ffffff"
     bordercolor="#666666"
     borderopacity="1"
     objecttolerance="10"
     gridtolerance="10"
     guidetolerance="10"
     inkscape:pageopacity="0"
     inkscape:pageshadow="2"
     inkscape:window-width="1369"
     inkscape:window-height="840"
     id="namedview148"
     showgrid="false"
     fit-margin-top="0"
     fit-margin-left="0"
     fit-margin-right="0"
     fit-margin-bottom="0"
     inkscape:zoom="1.2943548"
     inkscape:cx="61.752856"
     inkscape:cy="125"
     inkscape:window-x="0"
     inkscape:window-y="0"
     inkscape:window-maximized="0"
     inkscape:current-layer="svg146" /><g
     id="Layer 1"
     transform="translate(-239.55556,-112)"
     inkscape:export-xdpi="95.839996"
     inkscape:export-ydpi="95.839996"><path
       d="m 368,126 c -7,15 -12,15 -25,25 -5,5 -13,8 -3,13 -10,5 -15,7 -20,17 0,0 3,3 3,3 0,0 9,-5 10,-3 2,2 -13,10 -15,11 -1,1 -10,7 -10,7 -13,10 -20,7 -28,23 0,0 25,-3 25,-3 5,18 -12,20 -25,28 0,0 -20,12 -20,12 5,18 20,8 33,3 0,0 2,2 2,2 0,0 0,5 0,5 0,0 -25,13 -25,13 0,0 -30,17 -30,18 -1,1 0,5 0,5 10,2 25,5 35,0 13,-5 15,-10 30,-10 -17,12 -30,17 -50,20 0,0 0,10 0,10 15,0 25,0 38,-3 0,0 32,-10 32,-10 8,0 15,8 13,15 -8,28 -38,23 -48,46 0,0 40,-15 40,-15 10,-6 21,-11 33,-8 15,5 15,15 35,20 0,0 -5,-12 -5,-12 5,2 11,2 16,5 12,5 15,10 30,7 -13,-15 -15,-12 -25,-23 -10,-15 -16,-37 0,-40 0,0 17,5 17,5 18,3 18,-2 43,8 15,5 20,12 38,7 -8,-17 -35,-30 -53,-35 20,-13 15,5 43,-2 0,0 0,-5 0,-5 -20,-16 -28,-28 -56,-28 0,0 43,-5 43,-5 0,0 0,-5 0,-5 0,0 -42,-11 -43,-12 0,-1 1,-3 4,-4 8,5 32,4 34,4 -1,-6 -12,-11 -22,-16 0,0 -44,-27 -44,-29 1,-7 18,1 36,6 -5,-10 -15,-15 -25,-17 0,0 15,-3 15,-3 -10,-22 -35,-20 -51,-30 -10,-8 -10,-13 -25,-20 z"
       id="path103"
       inkscape:connector-curvature="0"
       style="fill:#00813b" /><path
       d="m 341,294 c 2,-6 4,-12 -7,-17 -11,-5 6,21 7,17 z"
       id="path105"
       inkscape:connector-curvature="0"
       style="fill:#ffffff;stroke:#ffffff;stroke-width:3;stroke-linecap:round;stroke-linejoin:round" /><path
       d="m 354,282 c -2,0 -3,8 1,10 5,1 1,-10 -1,-10 z"
       id="path107"
       inkscape:connector-curvature="0"
       style="fill:#ffffff;stroke:#ffffff;stroke-width:3;stroke-linecap:round;stroke-linejoin:round" /><path
       d="m 367,281 c -2,0 -2,12 6,10 8,-2 0,-11 -6,-10 z"
       id="path109"
       inkscape:connector-curvature="0"
       style="fill:#ffffff;stroke:#ffffff;stroke-width:3;stroke-linecap:round;stroke-linejoin:round" /><path
       d="m 383,251 c 1,-3 0,-15 -8,-10 -7,5 5,11 8,10 z"
       id="path111"
       inkscape:connector-curvature="0"
       style="fill:#ffffff;stroke:#ffffff;stroke-width:3;stroke-linecap:round;stroke-linejoin:round" /><path
       d="m 367,241 c 2,-1 3,-8 -4,-6 -6,2 2,8 4,6 z"
       id="path113"
       inkscape:connector-curvature="0"
       style="fill:#ffffff;stroke:#ffffff;stroke-width:3;stroke-linecap:round;stroke-linejoin:round" /><path
       d="m 353,244 c 0,0 -4,-6 -8,-5 -4,4 8,5 8,5 z"
       id="path115"
       inkscape:connector-curvature="0"
       style="fill:#ffffff;stroke:#ffffff;stroke-width:3;stroke-linecap:round;stroke-linejoin:round" /><path
       d="m 305,263 c 2,0 16,-2 20,-7 5,-6 -24,2 -24,2 0,0 3,5 4,5 z"
       id="path117"
       inkscape:connector-curvature="0"
       style="fill:#ffffff;stroke:#ffffff;stroke-width:3;stroke-linecap:round;stroke-linejoin:round" /><path
       d="m 442,229 c 1,-1 -7,-7 -12,-4 -1,4 12,5 12,4 z"
       id="path119"
       inkscape:connector-curvature="0"
       style="fill:#ffffff;stroke:#ffffff;stroke-width:3;stroke-linecap:round;stroke-linejoin:round" /><path
       d="m 415,216 c 1,-2 -3,-11 -13,-6 -10,5 10,9 13,6 z"
       id="path121"
       inkscape:connector-curvature="0"
       style="fill:#ffffff;stroke:#ffffff;stroke-width:3;stroke-linecap:round;stroke-linejoin:round" /><path
       d="m 384,211 c 0,0 2,-8 8,-7 7,5 -8,7 -8,7 z"
       id="path123"
       inkscape:connector-curvature="0"
       style="fill:#ffffff;stroke:#ffffff;stroke-width:3;stroke-linecap:round;stroke-linejoin:round" /><path
       d="m 378,205 c -1,-3 -7,-1 -14,3 -7,5 16,2 14,-3 z"
       id="path125"
       inkscape:connector-curvature="0"
       style="fill:#ffffff;stroke:#ffffff;stroke-width:3;stroke-linecap:round;stroke-linejoin:round" /><path
       d="m 396,183 c 0,0 6,-3 8,0 3,4 -8,0 -8,0 z"
       id="path127"
       inkscape:connector-curvature="0"
       style="fill:#ffffff;stroke:#ffffff;stroke-width:3;stroke-linecap:round;stroke-linejoin:round" /><path
       d="m 391,180 c -1,-2 -8,-2 -8,1 -1,3 9,3 8,-1 z"
       id="path129"
       inkscape:connector-curvature="0"
       style="fill:#ffffff;stroke:#ffffff;stroke-width:3;stroke-linecap:round;stroke-linejoin:round" /><path
       d="m 374,180 c -1,-1 -10,0 -13,6 4,3 15,-2 13,-6 z"
       id="path131"
       inkscape:connector-curvature="0"
       style="fill:#ffffff;stroke:#ffffff;stroke-width:3;stroke-linecap:round;stroke-linejoin:round" /><path
       d="m 353,186 c 0,0 -13,8 -14,14 0,5 16,-9 16,-9 0,0 2,-5 -2,-5 z"
       id="path133"
       inkscape:connector-curvature="0"
       style="fill:#ffffff;stroke:#ffffff;stroke-width:3;stroke-linecap:round;stroke-linejoin:round" /><path
       d="m 338,179 c 1,-1 7,-5 7,-5 1,2 -5,6 -7,5 z"
       id="path135"
       inkscape:connector-curvature="0"
       style="fill:#ffffff;stroke:#ffffff;stroke-width:3;stroke-linecap:round;stroke-linejoin:round" /><path
       d="m 343,210 c 0,-3 -16,-2 -10,5 5,6 11,-4 10,-5 z"
       id="path137"
       inkscape:connector-curvature="0"
       style="fill:#ffffff;stroke:#ffffff;stroke-width:3;stroke-linecap:round;stroke-linejoin:round" /><path
       d="m 328,220 c -1,-1 -2,-6 -4,-6 -2,0 -11,2 -12,3 -1,2 4,10 5,10 2,1 11,-6 11,-7 z"
       id="path139"
       inkscape:connector-curvature="0"
       style="fill:#ffffff;stroke:#ffffff;stroke-width:3;stroke-linecap:round;stroke-linejoin:round" /><path
       d="m 414,274 c 0,-2 16,-8 22,-2 7,9 -23,4 -22,2 z"
       id="path141"
       inkscape:connector-curvature="0"
       style="fill:#ffffff;stroke:#ffffff;stroke-width:3;stroke-linecap:round;stroke-linejoin:round" /><path
       d="m 458,284 c 4,-6 -11,-13 -17,-6 2,8 14,11 17,6 z"
       id="path143"
       inkscape:connector-curvature="0"
       style="fill:#ffffff;stroke:#ffffff;stroke-width:3;stroke-linecap:round;stroke-linejoin:round" /></g></svg>
